<?xml version="1.0" ?><!DOCTYPE svg  PUBLIC '-//W3C//DTD SVG 1.1//EN'  'http://www.w3.org/Graphics/SVG/1.1/DTD/svg11.dtd'><svg enable-background="new 0 0 512 512" height="30px" id="Layer_1" version="1.1" viewBox="0 0 512 512" width="30px" xml:space="preserve" xmlns="http://www.w3.org/2000/svg" xmlns:xlink="http://www.w3.org/1999/xlink"><g id="Twitter_Bird"><g><path d="M257,40.5c-119.292,0-216,96.706-216,216s96.706,216,216,216s216-96.706,216-216C473,137.208,376.292,40.5,257,40.5z     M395.952,190.184c-11.934,11.678-12.572,12.952-12.572,22.72c0,15.076-7.246,46.5-14.492,63.698    c-13.426,32.274-42.194,65.61-70.964,82.384c-40.49,23.568-94.404,29.514-139.796,15.712C142.998,370.026,117,358.136,117,356.012    c0-0.636,7.886-1.486,17.474-1.7c20.032-0.424,40.064-5.944,57.112-15.712l11.508-6.794l-13.212-4.46    c-18.754-6.37-35.588-21.02-39.85-34.822c-1.278-4.46-0.852-4.672,11.082-4.672l12.36-0.212l-10.442-4.884    c-12.36-6.158-23.654-16.562-29.196-27.178c-4.048-7.644-9.164-26.966-7.672-28.452c0.426-0.638,4.902,0.636,10.016,2.334    c14.704,5.308,16.622,4.034,8.098-4.884c-15.982-16.138-20.884-40.13-13.212-62.85l3.624-10.19l14.064,13.8    c28.77,27.816,62.652,44.376,101.438,49.26l10.654,1.274l-0.64-10.404c-1.918-26.966,14.918-51.596,41.556-61.152    c9.802-3.396,26.424-3.822,37.292-0.848c4.262,1.274,12.36,5.52,18.114,9.342l10.442,7.008l11.508-3.61    c6.394-1.91,14.918-5.096,18.754-7.22c3.622-1.91,6.82-2.972,6.82-2.336c0,3.61-7.884,15.926-14.49,22.72    c-8.95,9.556-6.394,10.404,11.72,4.034c10.868-3.61,11.082-3.61,8.95,0.424C409.59,175.958,402.984,183.39,395.952,190.184z"/><path d="M257,0.5C115.614,0.5,1,115.114,1,256.5s114.614,256,256,256s256-114.614,256-256S398.386,0.5,257,0.5z M257,484.502    c-125.92,0-228-102.08-228-228.002s102.08-228,228-228s228,102.08,228,228S382.92,484.502,257,484.502z"/></g></g></svg>
